<!-- Generator: Adobe Illustrator 22.0.1, SVG Export Plug-In  -->
<svg version="1.1"
	 xmlns="http://www.w3.org/2000/svg" xmlns:xlink="http://www.w3.org/1999/xlink" xmlns:a="http://ns.adobe.com/AdobeSVGViewerExtensions/3.0/"
	 x="0px" y="0px" width="392.23px" height="330.98px" viewBox="0 0 392.23 330.98"
	 style="enable-background:new 0 0 392.23 330.98;" xml:space="preserve">
<style type="text/css">
	.st0{fill:#4B74A3;}
	.st1{fill:#97908B;}
	.st2{fill:#040404;}
</style>
<defs>
</defs>
<g>
	<path class="st0" d="M210.544,239.015c-2.48,0-4.964-0.079-7.44,0.021c-2.928,0.118-4.608-0.625-4.601-4.108
		c0.007-3.62,1.555-4.708,4.889-4.549c3.506,0.167,7.033-0.105,10.537,0.08c3.217,0.169,4.593-1.078,4.261-4.302
		c-0.126-1.227-0.187-2.507,0.015-3.713c0.978-5.831-1.59-7.809-7.165-7.024c-2.024,0.285-4.126,0.008-6.193-0.011
		c-2.978-0.027-3.084-2.103-3.088-4.287c-0.004-2.205,0.171-4.281,3.12-4.277c4.958,0.007,9.941-0.224,14.867,0.188
		c4.287,0.359,6.652,3.418,6.878,7.543c0.304,5.559,0.397,11.168,0.005,16.715c-0.354,5.008-3.329,7.829-8.646,7.68
		c-2.478-0.069-4.96-0.012-7.44-0.012C210.544,238.979,210.544,238.997,210.544,239.015z"/>
	<path class="st0" d="M240.157,218.187c0,5.997-0.083,11.996,0.027,17.992c0.086,4.685-1.996,4.851-5.3,2.775
		c-3.166-1.989-3.895-5.019-3.867-8.564c0.089-10.96-0.092-21.923,0.067-32.882c0.047-3.212-0.604-5.006-4.205-5.174
		c-1.534-0.072-3.076-1.088-4.509-1.869c-1.344-0.733-2.25-2.004-1.957-3.583c0.402-2.165,2.268-1.253,3.535-1.313
		c9.069-0.426,15.604,5.372,16.086,14.63c0.312,5.981,0.059,11.992,0.059,17.989C240.115,218.187,240.136,218.187,240.157,218.187z"
		/>
	<path class="st0" d="M178.63,88.413c8.062-8.721,18.778-8.451,29.368-8.743c29.291-0.808,45.396-15.24,48.171-44.352
		c1.093-11.465,0.179-23.121,0.179-35.318c-2.311,2.178-2.071,4.445-2.563,6.355c-3.919,15.215-13.71,24.73-28.391,29.426
		c-7.556,2.417-15.398,3.081-23.331,2.927c-16.674-0.324-28.075,8.252-35.856,22.136c-7.023,12.531-9.102,26.331-7.072,40.35
		c5.142,35.502,36.868,37.702,37.678,37.36C167.001,132.333,163.786,102.58,178.63,88.413z"/>
	<path class="st1" d="M241.718,103.361c-14.478-0.045-28.956,0.011-43.434-0.008c-11.746-0.015-14.361-1.817-18.412-12.54
		c-2.263,2.178-4.001,4.654-5.257,7.294c-1.668,4.238-2.473,8.259-2.424,12.072c0.225,5.281,2.032,10.501,5.284,14.865
		c0.25,0.329,0.496,0.66,0.764,0.985c0.228,0.278,0.466,0.55,0.706,0.82c0.125,0.143,0.258,0.284,0.386,0.426
		c2.098,2.252,4.634,4.195,7.595,5.682c1.831,0.92,3.722,1.72,5.586,2.576c16.491,2.015,33.052,0.751,49.579,0.972
		c9.312,0.125,15.331-6.615,15.4-16.487C257.561,109.927,251.428,103.391,241.718,103.361z"/>
	<path class="st1" d="M119.509,305.726c-6.816-11.844-11.889-24.577-16.572-37.265c-9.356-25.35-13.816-51.997-17.776-78.675
		c-1.061-7.146-1.549-14.427-4.274-23.17c-6.746,29.528-17.975,55.238-31.851,79.911c-2.644,4.701-5.122,7.092-11.062,5.728
		c-7.836-1.799-15.082,0.743-21.371,6.298c8.174-2.716,16.338-4.248,25.215-0.563c-10.538,14.045-21.3,27.295-36.97,35.555
		c-4.207,2.218-6.188,7.292-3.856,10.778c2.868,4.287,6.96,3.044,10.439,0.947c4.64-2.797,8.27-6.852,11.803-10.945
		c7.607-8.814,14.358-18.284,20.191-28.31c3.004-5.163,5.529-6.12,11.064-3.413c16.993,8.31,29.681,21.018,39.351,36.904
		c5.181,8.512,11.119,16.292,18.049,23.442c8.447,8.715,18.73,8.611,30.948,7.516C132.3,323.471,125.056,315.365,119.509,305.726z
		 M82.248,269.571c-1.03,1.043-2.228-0.172-3.238-0.86c-7.907-5.384-16.389-9.602-25.48-12.594
		c-1.936-0.637-3.306-1.311-1.802-3.879c7.812-13.335,14.84-27.075,20.736-43.401c3.179,20.466,5.819,39.044,10.357,57.27
		C83.089,267.186,82.931,268.879,82.248,269.571z"/>
	<path class="st0" d="M196.523,199.886c-0.401-9.476-6.614-14.848-15.924-14.522c-1.133,0.04-2.726-0.703-3.262,0.773
		c-0.519,1.428,0.077,2.952,1.476,3.741c1.413,0.797,2.951,1.764,4.489,1.872c3.567,0.251,4.401,2.073,4.301,5.307
		c-0.185,5.997-0.044,12.004-0.042,18.007c0.006,16.611,0.01,16.535-16.683,15.429c-2.881-0.191-4.079-1.022-3.999-3.971
		c0.135-4.964-0.105-9.939,0.059-14.901c0.113-3.403-1.053-4.833-4.635-4.811c-3.41,0.021-4.298,1.618-4.236,4.575
		c0.083,3.932-0.347,7.917,0.156,11.787c0.807,6.213-1.683,7.76-7.576,7.39c-6.863-0.431-3.981-5.255-4.035-8.183
		c-0.275-14.743-1.29-15.892-15.997-15.59c-0.414,0.009-0.829-0.012-1.242,0.01c-6.4,0.347-9.013,2.837-9.243,9.173
		c-0.165,4.548-0.155,9.11-0.015,13.66c0.21,6.851,2.611,9.256,9.53,9.344c9.52,0.122,19.043,0.031,28.565,0.03
		c9.108,0,18.216,0.049,27.323-0.014c8.356-0.058,10.835-2.216,11.069-10.546C196.868,218.932,196.925,209.392,196.523,199.886z
		 M137.825,224.261c-0.016,3.198,0.833,6.409-4.618,6.38c-5.549-0.03-4.4-3.392-4.481-6.499c-0.016-0.614-0.002-1.23-0.005-1.846
		c0.263-3.143-1.465-7.295,4.619-6.985c3.486,0.178,4.866,1.218,4.512,4.648C137.704,221.379,137.832,222.827,137.825,224.261z"/>
	<g>
		<path class="st0" d="M387.544,290.35c0-7.04,0.059-14.081,0.01-21.121c-0.017-2.466,0.127-5.256-2.675-6.428
			c-2.87-1.2-5.312,0.225-7.227,2.264c-2.402,2.558-4.571,5.333-7.574,8.88c0-7.324,0.168-13.329-0.06-19.318
			c-0.149-3.915,0.177-6.799,5.116-7.215c2.163-0.182,3.826-2.103,4.459-4.498c-10.26-2.275-15.274,0.71-17.256,10.331
			c-0.454,2.205-0.567,4.51-0.582,6.771c-0.064,9.318,0.065,18.638-0.098,27.954c-0.041,2.37,1.449,6.406-2.521,6.344
			c-2.252-0.035-1.138-3.784-1.186-5.826c-0.165-7.037-0.238-14.085-0.004-21.117c0.122-3.647-0.773-5.028-4.774-5.029
			c-16.115-0.004-25.477,11.714-22.668,28.825c-0.207,1.714-0.657,3.72-2.676,3.477c-2.266-0.272-1.5-2.565-1.521-4.073
			c-0.099-7.228-0.003-14.459-0.19-21.683c-0.063-2.437-0.384-5.186-3.092-6.296c-2.958-1.213-5.16,0.608-7.089,2.546
			c-0.901,0.905-2.352,1.632-1.923,3.786c3.324-2.453,4.243-1.186,4.175,2.33c-0.145,7.433-0.107,14.872,0.029,22.305
			c0.046,2.515,0.729,5.13,3.376,6.154c2.805,1.086,5.206-0.053,7.199-2.223c0.809-0.88,1.819-1.575,2.738-2.354
			c3.618,5.868,5.611,6.338,10.525,2.225c2.57-2.151,4.945-4.536,7.759-7.139c1.131,9.075,2.606,10.192,9.907,8.063
			c0.841-0.245,1.231-0.519,2.007,0.252c3.12,3.1,4.742-0.027,6.381-1.87c2.757-3.1,2.076-7.046,1.917-10.71
			c-0.189-4.353,0.766-8.198,3.645-11.5c1.228-1.408,2.602-3.264,4.571-2.509c1.669,0.64,1.345,2.807,1.36,4.45
			c0.056,6.003-0.192,12.028,0.242,18.003c0.415,5.722,4.566,7.352,9.101,3.848c1.264-0.977,2.199-2.379,3.285-3.585
			C386.823,297.073,387.544,293.297,387.544,290.35z M350.121,270.921c0.205,1.411,0.042,2.875,0.05,4.317
			c-0.236,4.701,1.554,10.052-4.924,12.487c-3.893,1.463-5.909,0.141-7.017-3.414c-1.5-4.814,1.137-12.973,5.215-16.311
			c1.615-1.322,3.528-2.744,5.547-2.015C351.252,266.8,349.875,269.225,350.121,270.921z"/>
		<path class="st0" d="M276.465,290.163c0.194-9.719,0.01-19.445,0.078-29.168c0.041-5.961-2.363-13.139,7.126-14.684
			c1.083-0.176,2.684-1.618,2.215-3.267c-0.445-1.565-2.081-0.893-3.233-0.936c-9.161-0.344-13.878,4.567-14.154,15.415
			c-0.088,3.461-0.915,4.699-4.463,5.656c-8.198,2.213-13.535,7.617-14.608,16.474c0,0,0,0,0,0v0c0,0-1.046,6.451-1.018,9.708
			c0.02,2.356,0.284,5.144-2.836,4.996c-2.693-0.128-1.38-2.991-1.418-4.52c-0.191-7.614-0.213-15.238-0.04-22.853
			c0.078-3.417-1.044-4.404-4.559-4.694c-8.066-0.665-13.892,3.653-19.95,7.727c0.986-2.821,0.232-5.369-1.568-7.521
			c-1.487-1.779-3.131-4.74-5.884-2.041c-2.09,2.049-5.438,3.95-1.783,8.059c4.579,5.149,3.977,11.658-0.17,17.598
			c-1.584,2.269-2.945,1.217-3.825,0.042c-1.208-1.614-1.839-3.665-2.679-5.546c-2.35-5.269-4.604-10.583-7.054-15.805
			c-0.969-2.065-2.769-3.445-4.982-1.828c-1.713,1.252-4.745,3.233-3.197,5.255c6.207,8.106-2.028,12.645-3.646,18.879
			c-3.685-6.8-6.443-13.673-9.678-20.313c-2.72-5.583-5.874-5.965-10.731-2.009c-1.899,1.546-2.964,4.041-5.522,4.823
			c-0.258-2.49,2.303-6.352-2.039-7.004c-12.738-1.912-23.302,5.601-24.372,16.617c-0.968,6.112-1.081,9.08-1.081,9.08
			s-1.603,4.796-3.783,4.798c-2.729,0.003-1.491-2.898-1.508-4.459c-0.127-11.601,0.03-23.205-0.133-34.805
			c-0.05-3.592,0.608-5.808,4.739-6.37c2.289-0.311,4.383-1.959,4.763-4.846c-11.061-1.433-17.019,2.077-17.489,11.557
			c-0.667,13.433-0.254,26.921-0.219,40.386c0.005,2.129,0.737,4.165,2.892,5.123c2.43,1.081,4.262-0.328,6.266-1.545
			c2.05-1.246,2.427-4.606,5.593-4.319c2.779,7.129,5.567,7.987,11.136,3.259c2.464-2.092,4.715-4.435,7.352-6.938
			c0.498,4.423,0.667,8.865,5.6,9.611c3.903,0.591,5.79-2.512,7.674-6.078c-4.179,2.168-5.232,0.9-5.132-2.923
			c0.155-5.954-0.151-11.919-0.262-17.88c5.675-4.975,7.261-4.817,10.766,1.293c1.227,2.138,2.269,4.394,3.253,6.658
			c2.766,6.363,5.457,12.758,8.617,20.169c4.175-8.638,7.835-16.21,11.735-24.279c4.633,7.892,6.245,16.53,11.112,23.616
			c5.903-5.564,6.684-13.504,11.53-19.044c0.423,4.879-0.774,9.957,1.743,14.577c2.32,4.259,5.486,5.584,9.518,2.276
			c2.833-2.324,5.416-4.952,8.22-7.547c2.309,10.32,4.602,11.268,12.713,5.329c1.305-0.955,1.771,0.089,2.59,0.438
			c2.151,4.669,5.356,4.713,8.916,1.796c2.8-2.295,5.352-4.891,8.27-7.589c0.945,4.067,0.992,8.506,5.598,9.213
			c3.941,0.605,6.077-2.467,8.649-6.731C276.899,295.944,276.392,293.841,276.465,290.163z M151.373,270.439
			c0.161,1.626,0.036,3.281,0.04,4.925c-0.263,4.679,1.56,10.076-4.954,12.409c-3.811,1.365-5.923,0.224-6.915-3.501
			c-1.43-5.371,1.349-13.388,5.726-16.67c1.52-1.14,3.25-2.259,5.066-1.542C152.284,266.828,151.224,268.928,151.373,270.439z
			 M236.009,270.635c0.134,1.64,0.03,3.299,0.032,4.949c-0.148,4.763,1.391,10.162-5.188,12.314
			c-3.194,1.045-5.22,0.192-6.313-2.907c-1.885-5.348,0.849-14.05,5.467-17.383c1.509-1.089,3.257-2.382,5.079-1.483
			C236.852,266.997,235.882,269.084,236.009,270.635z M268.381,270.57c0.145,1.638,0.033,3.298,0.035,4.948
			c-0.179,4.74,1.466,10.155-5.125,12.341c-3.57,1.184-5.533-0.018-6.519-3.423c-1.535-5.304,1.201-13.616,5.57-16.794
			c1.516-1.103,3.297-2.333,5.09-1.539C269.247,266.908,268.244,269.031,268.381,270.57z"/>
		<path class="st0" d="M307.133,287.6c-0.046-11.359,0.111-22.72-0.088-34.075c-0.058-3.306,1.044-5.099,4.225-5.536
			c3.277-0.45,5.687-1.849,6.821-5.24c-13.353-2.161-18.88,2.168-18.987,14.859c-0.097,11.561,0.082,23.124,0.14,34.687
			c-1.165,1.068-2.098,3.065-3.948,2.299c-1.904-0.788-1.016-2.916-1.039-4.438c-0.102-6.595-0.056-13.193-0.049-19.789
			c0.003-2.292,0.047-4.697-1.544-6.476c-2.529-2.827-5.185-1.632-7.615,0.314c-0.949,0.76-3.292,2.083-0.992,2.974
			c3.592,1.392,2.262,4.008,2.318,6.136c0.178,6.797-0.043,13.605,0.087,20.404c0.047,2.485,0.575,5.138,3.383,6.059
			c2.555,0.838,4.855-0.066,6.737-1.978c0.855-0.869,1.723-1.727,2.585-2.59c0.189,2.84,1.528,5.069,4.501,4.769
			c4.924-0.497,8.432-3.23,10.619-8.41C307.654,294.411,307.159,294.127,307.133,287.6z"/>
	</g>
	<circle class="st0" cx="126.311" cy="197.822" r="4.955"/>
	<circle class="st0" cx="145.827" cy="248.618" r="4.955"/>
	<circle class="st0" cx="157.231" cy="248.618" r="4.955"/>
	<ellipse class="st0" cx="289.275" cy="253.714" rx="4.955" ry="5.872"/>
	<ellipse class="st0" cx="321.619" cy="253.714" rx="4.955" ry="5.872"/>
	<circle class="st0" cx="137.922" cy="197.822" r="4.955"/>
	<path class="st2" d="M311.708,238.826l-0.053-0.051v0.051C311.683,238.826,311.708,238.826,311.708,238.826z"/>
	<path class="st0" d="M390.058,217.021c0,6.208-0.108,12.418,0.036,18.623c0.105,4.524-2.03,4.268-4.951,2.588
		c-3.27-1.881-4.013-4.924-3.984-8.476c0.087-10.76-0.051-21.521,0.067-32.28c0.038-3.418-0.119-6.146-4.616-6.155
		c-1.322-0.003-2.729-0.905-3.942-1.648c-1.428-0.875-2.854-2.101-2.101-4.013c0.686-1.741,2.469-0.964,3.784-1.011
		c8.962-0.316,15.396,5.784,15.652,14.991c0.161,5.79,0.03,11.587,0.03,17.381C390.042,217.021,390.05,217.021,390.058,217.021z"/>
	<path class="st0" d="M371.401,198.736c-0.159-9.352-6.935-15.175-16.146-14.216c-0.939,0.098-2.239-0.413-2.608,0.91
		c-0.349,1.249-0.019,2.536,1.148,3.288c1.196,0.771,2.52,1.939,3.773,1.92c5.101-0.077,5.33,2.947,5.258,6.879
		c-0.194,10.564-0.118,31.701-0.118,31.701l-0.558,0.039c0,0-31.762,0.015-31.334,0.016c2.572,0.008,4.196,1.739,4.178,4.412
		c-0.018,2.615-1.612,4.4-4.079,4.367c-0.208-0.003,31.792,0.002,31.792,0.002c5.952,0.04,8.705-3.067,8.714-8.858
		C371.434,219.042,371.573,208.886,371.401,198.736z"/>
	<path class="st0" d="M307.806,229.253l-35.885-0.012c0,0-0.018-11.602-0.075-17.402c-0.016-1.587,0.395-3.713-1.914-3.947
		c-7.898-0.8-15.385,0.359-21.333,6.15c-5.398,5.255-6.603,11.909-4.74,18.936c1.507,5.687,6.472,7.42,11.69,4.474
		c2.474-1.397,4.777-3.098,7.277-4.74c1.464,9.2-3.902,15.562-12.928,15.757c5.799,9.257,10.628,9.562,17.162,0.9
		c1.47-1.949,2.896-4.23,3.379-6.558c0.88-4.238,3.301-4.85,7.096-4.795c4.416,0.064,10.545,0.063,16.396,0.038
		c6.546-0.028,15.588-0.087,20.483-0.119C311.88,236.966,308.788,234.634,307.806,229.253z M263.576,218.677
		c0,0,0.986,10.505-4.781,10.378c-4.132,0.627-6.339-1.057-6.778-5.172c-0.228-2.138,0.271-4.162,1.258-6.002
		c1.925-3.59,4.815-7.561,8.777-6.714C263.736,212.826,263.576,218.677,263.576,218.677z"/>
	<path class="st1" d="M333.854,201.896c-0.612,0.577-0.549,1.177-0.679,1.683c-1.038,4.03-3.631,6.55-7.52,7.794
		c-2.001,0.64-4.078,0.816-6.18,0.775c-4.416-0.086-7.436,2.186-9.497,5.863c-1.86,3.319-2.411,6.974-1.873,10.687
		c0.028,0.196,0.077,0.366,0.112,0.555c0.982,5.381,4.326,7.713,6.86,8.681c1.634,0.624,2.925,0.694,3.008,0.659
		c-0.77-0.161-1.453-0.396-2.092-0.665c-4.056-1.714-5.494-5.415-4.845-8.674c0.296-1.486,1.009-2.88,2.121-3.941
		c2.135-2.31,4.974-2.238,7.779-2.316c7.758-0.214,12.024-4.037,12.759-11.747C334.096,208.214,333.854,205.126,333.854,201.896z"/>
	<path class="st1" d="M329.979,229.273c-0.428-0.001-0.857,0.001-1.285,0c-3.406-0.006-6.813,0.003-10.219-0.002
		c-0.13,0-0.233-0.007-0.355-0.009v-0.005l-0.185,0c-2.635-0.067-3.332-0.648-4.337-3.308c-0.599,0.577-1.06,1.233-1.392,1.932
		c-0.185,0.47-0.306,0.924-0.411,1.374c-0.146,0.625-0.238,1.237-0.231,1.824c0.06,1.399,0.538,2.781,1.399,3.937
		c0.066,0.087,0.132,0.175,0.202,0.261c0.06,0.074,0.123,0.146,0.187,0.217c0.033,0.038,0.068,0.075,0.102,0.113
		c0.556,0.596,1.227,1.111,2.012,1.505c0.485,0.244,0.986,0.456,1.479,0.682c0.391,0.048,0.783,0.057,1.174,0.092
		c3.772,0.335,7.555,0.147,11.334,0.167c0.208,0.001,0.416-0.005,0.624-0.002c2.467,0.033,4.061-1.752,4.079-4.367
		C334.176,231.012,332.551,229.281,329.979,229.273z"/>
</g>
</svg>